<svg width="24.000000" height="24.000000" viewBox="0 0 24 24" fill="none" xmlns="http://www.w3.org/2000/svg" xmlns:xlink="http://www.w3.org/1999/xlink">
	<desc>
			Created with Pixso.
	</desc>
	<defs/>
	<rect id="Iconly/Light/Bag" width="24.000000" height="24.000000" fill="#FFFFFF" fill-opacity="0"/>
	<path id="Path_33955" d="M8.16602 21.5C5.09961 21.5 2.74707 20.3921 3.41504 15.9346L4.19336 9.89355C4.60449 7.66895 6.02344 6.81787 7.26855 6.81787L17.4473 6.81787C18.71 6.81787 20.0469 7.7334 20.5225 9.89355L21.3008 15.9346C21.8682 19.8887 19.5801 21.5 16.5137 21.5L8.16602 21.5Z" stroke="#130F26" stroke-opacity="1.000000" stroke-width="1.500000" stroke-linejoin="round"/>
	<path id="Path_33956" d="M16.6514 6.59814C16.6514 4.2124 14.7168 2.27783 12.3311 2.27783C11.1816 2.27295 10.0781 2.72607 9.26367 3.53662C8.4502 4.34766 7.99219 5.44922 7.99219 6.59814L7.99219 6.59814" stroke="#130F26" stroke-opacity="1.000000" stroke-width="1.500000" stroke-linejoin="round" stroke-linecap="round"/>
	<path id="Line_192" d="M15.2959 11.1016L15.25 11.1016" stroke="#130F26" stroke-opacity="1.000000" stroke-width="1.500000" stroke-linejoin="round" stroke-linecap="round"/>
	<path id="Line_193" d="M9.46582 11.1016L9.41992 11.1016" stroke="#130F26" stroke-opacity="1.000000" stroke-width="1.500000" stroke-linejoin="round" stroke-linecap="round"/>
</svg>
