<svg width="24.000000" height="24.000000" viewBox="0 0 24 24" fill="none" xmlns="http://www.w3.org/2000/svg" xmlns:xlink="http://www.w3.org/1999/xlink">
	<desc>
			Created with Pixso.
	</desc>
	<defs/>
	<rect id="Iconly/Light/Category" width="24.000000" height="24.000000" fill="#FFFFFF" fill-opacity="0"/>
	<path id="Stroke 1" d="M6.5 3C9.97168 3 10 3.875 10 6.5C10 9.125 10.0107 10 6.5 10C2.98926 10 3 9.125 3 6.5C3 3.875 3.02832 3 6.5 3Z" stroke="#130F26" stroke-opacity="1.000000" stroke-width="1.500000" stroke-linejoin="round"/>
	<path id="Stroke 3" d="M17.5 3C20.9717 3 21 3.875 21 6.5C21 9.125 21.0107 10 17.5 10C13.9893 10 14 9.125 14 6.5C14 3.875 14.0283 3 17.5 3Z" stroke="#130F26" stroke-opacity="1.000000" stroke-width="1.500000" stroke-linejoin="round"/>
	<path id="Stroke 5" d="M6.5 14C9.97168 14 10 14.875 10 17.5C10 20.125 10.0107 21 6.5 21C2.98926 21 3 20.125 3 17.5C3 14.875 3.02832 14 6.5 14Z" stroke="#130F26" stroke-opacity="1.000000" stroke-width="1.500000" stroke-linejoin="round"/>
	<path id="Stroke 7" d="M17.5 14C20.9717 14 21 14.875 21 17.5C21 20.125 21.0107 21 17.5 21C13.9893 21 14 20.125 14 17.5C14 14.875 14.0283 14 17.5 14Z" stroke="#130F26" stroke-opacity="1.000000" stroke-width="1.500000" stroke-linejoin="round"/>
</svg>
