<svg width="24.000000" height="24.000000" viewBox="0 0 24 24" fill="none" xmlns="http://www.w3.org/2000/svg" xmlns:xlink="http://www.w3.org/1999/xlink">
	<desc>
			Created with Pixso.
	</desc>
	<defs/>
	<rect id="Iconly/Light/Chat" width="24.000000" height="24.000000" fill="#FFFFFF" fill-opacity="0"/>
	<path id="Stroke 4" d="M7.78613 21.0742C7.23926 20.854 6.79102 20.6758 6.36523 20.6758C5.17871 20.6831 3.70117 21.834 2.93359 21.0669C2.16602 20.2993 3.31738 18.8208 3.31738 17.6265C3.31738 17.2002 3.14648 16.7603 2.92676 16.2124C1.21289 12.5098 1.87402 7.98291 4.93066 4.92725C8.83203 1.02441 15.1699 1.02441 19.0713 4.92627C22.9795 8.83496 22.9727 15.168 19.0713 19.0698C16.0156 22.1265 11.4902 22.7866 7.78613 21.0742Z" stroke="#130F26" stroke-opacity="1.000000" stroke-width="1.500000" stroke-linejoin="round"/>
	<path id="Stroke 11" d="M15.9395 12.4131L15.9492 12.4131" stroke="#130F26" stroke-opacity="1.000000" stroke-width="2.000000" stroke-linejoin="round" stroke-linecap="round"/>
	<path id="Stroke 13" d="M11.9297 12.4131L11.9395 12.4131" stroke="#130F26" stroke-opacity="1.000000" stroke-width="2.000000" stroke-linejoin="round" stroke-linecap="round"/>
	<path id="Stroke 15" d="M7.9209 12.4131L7.93066 12.4131" stroke="#130F26" stroke-opacity="1.000000" stroke-width="2.000000" stroke-linejoin="round" stroke-linecap="round"/>
</svg>
