<svg width="24.000000" height="24.000000" viewBox="0 0 24 24" fill="none" xmlns="http://www.w3.org/2000/svg" xmlns:xlink="http://www.w3.org/1999/xlink">
	<desc>
			Created with Pixso.
	</desc>
	<defs>
		<clipPath id="clip2_14109">
			<rect id="fi:eye-off" width="24.000000" height="24.000000" fill="white" fill-opacity="0"/>
		</clipPath>
	</defs>
	<rect id="fi:eye-off" width="24.000000" height="24.000000" fill="#FFFFFF" fill-opacity="0"/>
	<g clip-path="url(#clip2_14109)">
		<path id="Vector" d="M12 20C5 20 1 12 1 12C2.24414 9.68213 3.96875 7.65674 6.05957 6.06006L17.9404 17.9399C16.2305 19.2432 14.1494 19.9648 12 20ZM9.90039 4.24023C10.5879 4.0791 11.293 3.99854 12 4C19 4 23 12 23 12C22.3926 13.1357 21.6689 14.2046 20.8398 15.1899M14.1201 14.1201C13.8457 14.4146 13.5137 14.6514 13.1465 14.8149C12.7783 14.979 12.3809 15.0674 11.9785 15.0742C11.5752 15.0815 11.1748 15.0073 10.8018 14.8564C10.4277 14.7056 10.0889 14.481 9.80371 14.1963C9.51855 13.9111 9.29395 13.5718 9.14355 13.1982C8.99219 12.8247 8.91895 12.4248 8.92578 12.022C8.93262 11.6191 9.02051 11.2217 9.18457 10.854C9.34863 10.4858 9.58496 10.1548 9.87988 9.87988" stroke="#000000" stroke-opacity="1.000000" stroke-width="2.000000" stroke-linejoin="round"/>
		<path id="Vector" d="M1 1L23 23" stroke="#000000" stroke-opacity="1.000000" stroke-width="2.000000" stroke-linejoin="round" stroke-linecap="round"/>
	</g>
</svg>
