<svg width="24.000000" height="24.000000" viewBox="0 0 24 24" fill="none" xmlns="http://www.w3.org/2000/svg" xmlns:xlink="http://www.w3.org/1999/xlink">
	<desc>
			Created with Pixso.
	</desc>
	<defs>
		<clipPath id="clip2_14754">
			<rect id="fi:gift" width="24.000000" height="24.000000" fill="white" fill-opacity="0"/>
		</clipPath>
	</defs>
	<rect id="fi:gift" width="24.000000" height="24.000000" fill="#FFFFFF" fill-opacity="0"/>
	<g clip-path="url(#clip2_14754)">
		<path id="Vector" d="M20 12L20 22L4 22L4 12" stroke="#000000" stroke-opacity="1.000000" stroke-width="2.000000" stroke-linejoin="round" stroke-linecap="round"/>
		<path id="Vector" d="M22 7L22 12L2 12L2 7L22 7Z" stroke="#000000" stroke-opacity="1.000000" stroke-width="2.000000" stroke-linejoin="round"/>
		<path id="Vector" d="M12 22L12 7" stroke="#000000" stroke-opacity="1.000000" stroke-width="2.000000" stroke-linejoin="round" stroke-linecap="round"/>
		<path id="Vector" d="M16.5 7C17.1631 7 17.7988 6.73682 18.2676 6.26758C18.7363 5.79883 19 5.16309 19 4.5C19 3.83691 18.7363 3.20117 18.2676 2.73242C17.7988 2.26318 17.1631 2 16.5 2C13 2 12 7 12 7L16.5 7Z" stroke="#000000" stroke-opacity="1.000000" stroke-width="2.000000" stroke-linejoin="round"/>
		<path id="Vector" d="M7.5 7C6.83691 7 6.20117 6.73682 5.73242 6.26758C5.26367 5.79883 5 5.16309 5 4.5C5 3.83691 5.26367 3.20117 5.73242 2.73242C6.20117 2.26318 6.83691 2 7.5 2C11 2 12 7 12 7L7.5 7Z" stroke="#000000" stroke-opacity="1.000000" stroke-width="2.000000" stroke-linejoin="round"/>
	</g>
</svg>
