<svg width="24.000000" height="24.000000" viewBox="0 0 24 24" fill="none" xmlns="http://www.w3.org/2000/svg" xmlns:xlink="http://www.w3.org/1999/xlink">
	<desc>
			Created with Pixso.
	</desc>
	<defs>
		<clipPath id="clip2_14641">
			<rect id="fi:lock" width="24.000000" height="24.000000" fill="white" fill-opacity="0"/>
		</clipPath>
	</defs>
	<rect id="fi:lock" width="24.000000" height="24.000000" fill="#FFFFFF" fill-opacity="0"/>
	<g clip-path="url(#clip2_14641)">
		<path id="Vector" d="M19 11C20.1045 11 21 11.8955 21 13L21 20C21 21.1045 20.1045 22 19 22L5 22C3.89551 22 3 21.1045 3 20L3 13C3 11.8955 3.89551 11 5 11L19 11Z" stroke="#000000" stroke-opacity="1.000000" stroke-width="2.000000" stroke-linejoin="round"/>
		<path id="Vector" d="M7 11L7 7C7 5.67383 7.52637 4.40234 8.46484 3.46436C9.40234 2.52686 10.6738 2 12 2C13.3262 2 14.5977 2.52686 15.5352 3.46436C16.4736 4.40234 17 5.67383 17 7L17 11" stroke="#000000" stroke-opacity="1.000000" stroke-width="2.000000" stroke-linejoin="round" stroke-linecap="round"/>
	</g>
</svg>
