<svg width="24" height="24" viewBox="0 0 24 24" fill="none" xmlns="http://www.w3.org/2000/svg">
<path fill-rule="evenodd" clip-rule="evenodd" d="M17.2777 13.8891C17.9524 13.8891 18.5188 14.446 18.4156 15.1123C17.8103 19.0323 14.4545 21.9428 10.4072 21.9428C5.92928 21.9428 2.2998 18.3134 2.2998 13.8365C2.2998 10.1481 5.10191 6.7123 8.25665 5.93546C8.93454 5.76809 9.62928 6.24493 9.62928 6.94283C9.62928 11.6712 9.78823 12.8944 10.6861 13.5597C11.584 14.2249 12.6398 13.8891 17.2777 13.8891Z" stroke="#130F26" stroke-width="1.5" stroke-linecap="round" stroke-linejoin="round"/>
<path fill-rule="evenodd" clip-rule="evenodd" d="M21.6921 9.9517C21.7458 6.9138 18.0142 2.01696 13.4669 2.10117C13.1132 2.10749 12.83 2.40222 12.8142 2.75485C12.6995 5.25275 12.8542 8.48959 12.9406 9.95696C12.9669 10.4138 13.3258 10.7727 13.7816 10.7991C15.29 10.8854 18.6448 11.0033 21.1069 10.6306C21.4416 10.5801 21.6869 10.2896 21.6921 9.9517Z" stroke="#130F26" stroke-width="1.5" stroke-linecap="round" stroke-linejoin="round"/>
</svg>
