<svg width="24.000000" height="24.000000" viewBox="0 0 24 24" fill="#5570F1" xmlns="http://www.w3.org/2000/svg" xmlns:xlink="http://www.w3.org/1999/xlink">
	<desc>
			Created with Pixso.
	</desc>
	<defs/>
	<rect id="Iconly/Light/Home" width="24.000000" height="24.000000" fill="#FFFFFF" fill-opacity="0"/>
	<path id="Home" d="M9.15723 20.7715L9.15723 17.7046C9.15723 16.9248 9.79297 16.291 10.5811 16.2856L13.4668 16.2856C14.2588 16.2856 14.9004 16.9209 14.9004 17.7046L14.9004 20.7808C14.9004 21.4434 15.4346 21.9844 16.1035 22L18.0273 22C19.9453 22 21.5 20.4604 21.5 18.562L21.5 9.83789C21.4902 9.09082 21.1357 8.38916 20.5381 7.93311L13.958 2.68506C12.8047 1.77148 11.166 1.77148 10.0137 2.68506L3.46191 7.94238C2.8623 8.39697 2.50781 9.09961 2.5 9.84717L2.5 18.562C2.5 20.4604 4.05469 22 5.97266 22L7.89648 22C8.58203 22 9.1377 21.4497 9.1377 20.7715" stroke="#130F26" stroke-opacity="1.000000" stroke-width="1.500000" stroke-linejoin="round" stroke-linecap="round"/>
</svg>
