<svg width="24.000000" height="24.000000" viewBox="0 0 24 24" fill="none" xmlns="http://www.w3.org/2000/svg" xmlns:xlink="http://www.w3.org/1999/xlink">
	<desc>
			Created with Pixso.
	</desc>
	<defs/>
	<rect id="Iconly/Bulk/Logout" width="24.000000" height="24.000000" fill="#FFFFFF" fill-opacity="0"/>
	<g opacity="0.400000">
		<path id="Fill 1" d="M2 6.44678C2 3.99609 4.03027 2 6.52441 2L11.4854 2C13.9746 2 16 3.99023 16 6.43701L16 17.5532C16 20.0049 13.9697 22 11.4746 22L6.51562 22C4.02539 22 2 20.0098 2 17.563L2 16.623L2 6.44678Z" fill="#130F26" fill-opacity="1.000000" fill-rule="nonzero"/>
	</g>
	<path id="Fill 3" d="M21.7793 11.4551L18.9336 8.5459C18.6396 8.24609 18.166 8.24609 17.873 8.54785C17.5811 8.8501 17.582 9.33691 17.875 9.63721L19.4336 11.23L17.9395 11.23L9.54883 11.23C9.13477 11.23 8.79883 11.5752 8.79883 12C8.79883 12.4263 9.13477 12.77 9.54883 12.77L19.4336 12.77L17.875 14.3633C17.582 14.6631 17.5811 15.1499 17.873 15.4521C18.0195 15.603 18.2119 15.6792 18.4043 15.6792C18.5957 15.6792 18.7871 15.603 18.9336 15.4541L21.7793 12.5459C21.9209 12.4009 22 12.2051 22 12C22 11.7959 21.9209 11.6001 21.7793 11.4551Z" fill="#130F26" fill-opacity="1.000000" fill-rule="nonzero"/>
</svg>
