<svg width="20" height="20" viewBox="0 0 20 20" fill="none" xmlns="http://www.w3.org/2000/svg">
<path d="M16.4749 9.70428C15.8662 8.99341 15.5896 8.37738 15.5896 7.3308V6.97495C15.5896 5.61112 15.2757 4.73239 14.5932 3.85367C13.5414 2.489 11.7706 1.6665 10.0372 1.6665H9.96347C8.26645 1.6665 6.55121 2.45123 5.48115 3.76051C4.76143 4.65686 4.4111 5.57335 4.4111 6.97495V7.3308C4.4111 8.37738 4.15269 8.99341 3.52573 9.70428C3.06441 10.228 2.91699 10.9011 2.91699 11.6296C2.91699 12.3589 3.15635 13.0497 3.63671 13.6111C4.26367 14.2842 5.14904 14.7139 6.05345 14.7886C7.36287 14.938 8.67228 14.9943 10.0007 14.9943C11.3284 14.9943 12.6378 14.9003 13.948 14.7886C14.8516 14.7139 15.737 14.2842 16.3639 13.6111C16.8435 13.0497 17.0837 12.3589 17.0837 11.6296C17.0837 10.9011 16.9362 10.228 16.4749 9.70428Z" fill="#5570F1"/>
<path opacity="0.4" d="M11.6745 16.0233C11.2579 15.9343 8.71937 15.9343 8.30278 16.0233C7.94664 16.1055 7.56152 16.2969 7.56152 16.7165C7.58223 17.1168 7.81661 17.4702 8.14128 17.6943L8.14045 17.6951C8.56035 18.0224 9.05314 18.2306 9.56912 18.3053C9.84409 18.343 10.124 18.3414 10.4089 18.3053C10.9241 18.2306 11.4169 18.0224 11.8368 17.6951L11.836 17.6943C12.1606 17.4702 12.395 17.1168 12.4157 16.7165C12.4157 16.2969 12.0306 16.1055 11.6745 16.0233Z" fill="#5570F1"/>
</svg>
