<svg width="24.000000" height="24.000000" viewBox="0 0 24 24" fill="none" xmlns="http://www.w3.org/2000/svg" xmlns:xlink="http://www.w3.org/1999/xlink">
	<desc>
			Created with Pixso.
	</desc>
	<defs/>
	<rect id="Iconly/Light/Setting" width="24.000000" height="24.000000" fill="#FFFFFF" fill-opacity="0"/>
	<path id="Path_33946" d="M20.1836 6.54346C19.6572 5.62939 18.4902 5.31396 17.5752 5.83838C17.1396 6.09521 16.6201 6.16797 16.1309 6.04102C15.6406 5.91357 15.2227 5.59717 14.9668 5.16113C14.8018 4.88379 14.7139 4.56836 14.71 4.24561C14.7256 3.729 14.5303 3.22803 14.1699 2.85742C13.8096 2.48682 13.3145 2.27783 12.7969 2.27783L11.543 2.27783C11.0371 2.27783 10.5508 2.47949 10.1934 2.83887C9.83691 3.19775 9.63672 3.68457 9.63965 4.19092C9.62402 5.23682 8.77246 6.07666 7.72656 6.07666C7.4043 6.07324 7.08789 5.98486 6.81055 5.82031C5.89551 5.2959 4.72852 5.61084 4.20215 6.5249L3.53418 7.62354C3.00781 8.53613 3.31934 9.70215 4.22949 10.2319C4.82129 10.5737 5.18652 11.2056 5.18652 11.8887C5.18652 12.5723 4.82129 13.2036 4.22949 13.5454C3.32031 14.0718 3.00879 15.2349 3.53418 16.145L4.16602 17.2344C4.41211 17.6797 4.82617 18.0078 5.31641 18.147C5.80566 18.2861 6.33008 18.2246 6.77441 17.9756C7.21094 17.7212 7.73047 17.6514 8.21875 17.7817C8.70703 17.9126 9.12305 18.2329 9.37402 18.6714C9.53809 18.9487 9.62695 19.2642 9.62988 19.5869C9.62988 20.6431 10.4863 21.5 11.543 21.5L12.7969 21.5C13.8506 21.5 14.7051 20.6489 14.71 19.5957C14.708 19.0879 14.9082 18.5996 15.2676 18.2407C15.627 17.8813 16.1152 17.6802 16.623 17.6831C16.9453 17.6914 17.2598 17.7793 17.5391 17.939C18.4512 18.4653 19.6172 18.1543 20.1475 17.2437L20.8066 16.145C21.0615 15.707 21.1318 15.1855 21.001 14.6963C20.8701 14.2065 20.5498 13.7891 20.1104 13.5366C19.6719 13.2837 19.3516 12.8662 19.2207 12.3765C19.0898 11.8872 19.1602 11.3657 19.415 10.9277C19.5811 10.6382 19.8213 10.3979 20.1104 10.2319C21.0156 9.70264 21.3262 8.54346 20.8066 7.63232L20.8066 7.62354L20.1836 6.54346Z" stroke="#130F26" stroke-opacity="1.000000" stroke-width="1.500000" stroke-linejoin="round"/>
	<circle id="Ellipse_737" cx="12.174805" cy="11.889160" r="2.636156" stroke="#130F26" stroke-opacity="1.000000" stroke-width="1.500000" stroke-linejoin="round"/>
</svg>
