<svg width="24.000000" height="24.000000" viewBox="0 0 24 24" fill="none" xmlns="http://www.w3.org/2000/svg" xmlns:xlink="http://www.w3.org/1999/xlink">
	<desc>
			Created with Pixso.
	</desc>
	<defs/>
	<rect id="Iconly/Light/2 User" width="24.000000" height="24.000000" fill="#FFFFFF" fill-opacity="0"/>
	<path id="Stroke 1" d="M16.4336 17.999C16.4336 20.2319 13.3018 20.8071 9.5918 20.8071C5.90234 20.8071 2.75 20.2529 2.75 18.019C2.75 15.7852 5.88086 15.207 9.5918 15.207C13.2812 15.207 16.4336 15.7661 16.4336 17.999Z" stroke="#130F26" stroke-opacity="1.000000" stroke-width="1.500000" stroke-linejoin="round"/>
	<path id="Stroke 3" d="M5.20508 7.63477C5.20508 5.21289 7.16895 3.25 9.59082 3.25C12.0117 3.25 13.9766 5.21289 13.9766 7.63477C13.9854 10.0479 12.0352 12.0112 9.62207 12.02L9.59082 12.02C7.16895 12.02 5.20508 10.0571 5.20508 7.63477Z" stroke="#130F26" stroke-opacity="1.000000" stroke-width="1.500000" stroke-linejoin="round"/>
	<path id="Stroke 5" d="M16.4834 10.8818C18.084 10.6567 19.3174 9.28271 19.3203 7.61963C19.3203 5.98096 18.125 4.62061 16.5586 4.36377" stroke="#130F26" stroke-opacity="1.000000" stroke-width="1.500000" stroke-linejoin="round" stroke-linecap="round"/>
	<path id="Stroke 7" d="M18.5957 14.7324C20.1465 14.9634 21.2295 15.5073 21.2295 16.6274C21.2295 17.3984 20.7197 17.8984 19.8955 18.2114" stroke="#130F26" stroke-opacity="1.000000" stroke-width="1.500000" stroke-linejoin="round" stroke-linecap="round"/>
</svg>
